<?xml version="1.0" encoding="UTF-8"?>
<svg id="Layer_2" data-name="Layer 2" xmlns="http://www.w3.org/2000/svg" viewBox="0 0 310.73 105.66">
  <g id="Layer_1-2" data-name="Layer 1">
    <g>
      <path d="m52.23.08c.37.11.63.13.83.11,2.59-.24,4.79.83,6.94,2.07,8.82,5.12,17.63,10.24,26.45,15.37,6.19,3.6,9.66,9.15,11.15,15.98.41,1.88.29,3.9.3,5.85.02,9.33.03,18.66,0,27.99-.04,9.3-4.17,16.24-12.21,20.88-8.43,4.87-16.87,9.72-25.26,14.67-2.77,1.64-5.59,2.76-8.91,2.16,0,.11-.39.19-.39.3-.24,0-.16.05-.4.06-.24.03-.32.06-.76.07,0-.25,1.88.06-2.37.06-.88-.13-.62-.22-1.22-.28-.44-.07-1.04-.12-1.28-.1-3.2.35-5.9-.91-8.57-2.48-8.21-4.81-16.44-9.6-24.72-14.3-3.98-2.26-7.12-5.26-9.38-9.24-1.25-2.2-2.03-4.49-1.96-7.06-.07-.69-.07-.72-.16-1.46,0-14.58-.31-22.86-.31-37.45.07-.29.07-.32.14-.41.5-1.71.77-3.42,1.47-4.92,2.08-4.47,5.17-8.05,9.55-10.53,8.13-4.62,16.19-9.35,24.25-14.08C38.45,1.56,41.51-.06,45.19.18c.04,0,.56-.09.79-.18m34.32,52.69c0-5.33-.05-10.66.03-15.99.03-1.7-.56-2.81-2.03-3.65-9.02-5.19-18.02-10.39-26.99-15.65-1.93-1.13-3.61-.99-5.48.11-8.79,5.16-17.61,10.27-26.46,15.33-1.74.99-2.44,2.27-2.43,4.22.04,10.54.05,21.08,0,31.61,0,1.82.63,3.06,2.26,3.93,2.46,1.32,4.84,2.77,7.25,4.16,6.44,3.74,12.92,7.41,19.31,11.25,2.16,1.3,3.93,1.09,6.01-.13,8.75-5.15,17.55-10.21,26.34-15.28,1.5-.87,2.25-1.96,2.21-3.8-.1-5.37-.04-10.75-.03-16.12Z"/>
      <path d="m310.73,76.01c-.26.1-.6.12-.76.3-1.62,1.77-3.61,1.1-5.47.72-1.08-.22-1.49-1.32-1.51-2.37-.06-2.87-.03-5.74-.05-8.61-.01-2.09-.02-2.11-2.08-2.11-6.42-.01-12.83-.01-19.25-.01-.57,0-1.15,0-1.89,0,0,.58,0,1.02,0,1.47,0,3,.02,6,0,9-.01,1.85-.87,2.74-2.7,2.92-.12.01-.25.04-.37.04-4.19.05-4.51-.54-4.49-4.08.04-8.46-.17-16.92.17-25.37.23-5.69,2.28-10.92,6.55-14.96,8.28-7.82,23.6-6.05,28.92,5.36,1.2,2.57,2.15,5.14,1.95,8.02-.04.67-.27-1.33.02-.67,0,.25-.23,1.36,0,0,0,10.58.96,19.77.96,30.35Zm-30.97-19.34c.36.05.68.13,1,.13,7,.02,14,.02,20.99.03.7,0,1.31.03,1.24-1.03-.2-3.07-.32-6.15-.47-9.22-.25-5.26-4.9-10.75-11.53-10.53-5.4.18-9.5,4.03-10.49,8.51-.87,3.96-.9,8-.75,12.1Z"/>
      <path d="m188.31,61.83c0-4.04-.21-8.09.05-12.12.36-5.6,1.87-10.92,5.46-15.39,2.89-3.59,6.87-5.29,11.32-5.97,3.59-.55,7.15-.3,10.62.81,6.5,2.09,10.3,6.79,11.86,13.2.86,3.53,1.29,7.22,1.4,10.85.21,6.87,0,13.74.06,20.61.03,2.95-1.23,3.43-3.64,3.53-.62.03-1.26-.02-1.87-.13-1.22-.22-2.07-.88-2.17-2.21-.07-.95-.1-1.91-.1-2.87-.01-7,.01-13.99-.05-20.99-.02-1.91-.14-3.84-.46-5.72-1.03-5.87-5.45-9.47-11.41-9.39-2.36.03-4.76-.09-6.93,1.16-3.74,2.16-5.6,5.52-5.98,9.69-.26,2.9-.23,5.82-.25,8.74-.03,6.08,0,12.16-.02,18.24,0,2.46-1.02,3.46-3.49,3.51-.5,0-1-.04-1.49-.09-2.11-.2-2.89-1-2.91-3.11-.03-4.12,0-8.25,0-12.37Z"/>
      <path d="m115.6,52.77c.15-2.2.1-4.43.48-6.59,1.78-10.3,7.91-16.71,18.68-17.87,6.37-.68,12.13.99,17.04,5.22.81.7,1.51,1.55,2.17,2.4.72.93.63,1.95-.24,2.68-1.01.85-2.14,1.56-3.26,2.25-1.12.69-1.95.36-2.7-.75-1.85-2.74-4.46-4.44-7.68-5.15-7.72-1.71-14.43,3.01-16.08,11.11-.99,4.87-1.01,9.69.26,14.47,1.39,5.21,4.48,8.95,9.97,10.03,5.42,1.06,10.05-.45,13.49-4.97,1.23-1.62,1.25-1.67,3.03-.76.95.49,1.87,1.1,2.67,1.8,1.28,1.11,1.34,2.03.28,3.36-2.72,3.41-6.28,5.55-10.49,6.57-6.47,1.57-12.67.88-18.39-2.65-3.61-2.22-5.87-5.57-7.38-9.49-1.45-3.76-1.74-7.69-1.84-11.66Z"/>
      <path d="m252.44,57.61c0,5.37,0,10.74,0,16.11,0,2.75-.92,3.66-3.68,3.65-.74,0-1.52-.03-2.23-.24-1.15-.34-1.79-1.19-1.82-2.41-.05-2.46-.09-4.91-.1-7.37-.02-8.79-.03-17.57,0-26.36,0-1.15-.33-1.59-1.51-1.46-.95.1-1.91.07-2.87,0-1.44-.09-2.29-.75-2.47-2.16-.13-1-.02-2.07.15-3.08.15-.97.87-1.49,1.86-1.54,1.2-.05,2.41-.12,3.61-.06.81.04,1.09-.17,1.14-1.01.2-3.49.31-6.99.75-10.45.87-6.86,5.43-10.91,12.34-11.22.87-.04,1.75-.05,2.62-.02,1.93.08,3.01,1.39,3.06,3.64.04,2.11-1.03,3.44-2.95,3.6-2.9.24-5.65.87-6.82,3.92-.6,1.56-.83,3.3-1,4.98-.18,1.77-.06,3.58-.15,5.37-.05.98.4,1.2,1.26,1.19,2.41-.02,4.83-.01,7.24.05,1.69.04,2.1.45,2.33,2.14.08.61.11,1.25.07,1.87-.13,2.07-.89,2.78-2.98,2.82-2.25.04-4.5.09-6.74.04-.88-.02-1.14.2-1.14,1.11.04,5.62.02,11.24.02,16.86Z"/>
      <path d="m172.71,52.75c0,7.08,0,14.15,0,21.23,0,2.37-.83,3.25-3.16,3.4-.21.01-.42.01-.62,0-3.21-.06-3.88-.68-3.89-3.91-.02-13.9-.01-27.8,0-41.7,0-.58,0-1.2.2-1.73.2-.55.53-1.3.99-1.47,1.7-.65,3.5-.79,5.19.04,1.09.54,1.29,1.64,1.29,2.78,0,7.12,0,14.23,0,21.35Z"/>
      <path d="m168.87,19.68c-2.72.02-4.83-2.22-4.81-5.1.02-2.48,2.2-4.53,4.83-4.54,2.45,0,4.78,2.33,4.83,4.78.04,2.26-2.29,5.09-4.85,4.85Z"/>
    </g>
  </g>
</svg>